Coordinates
version=1
nRows=7
nColumns=46
inDegrees=yes

Units are S.I. units (second, meters, Newtons, ...)
Angles are in degrees.

endheader
time	pelvis_tilt	pelvis_list	pelvis_rotation	pelvis_tx	pelvis_ty	pelvis_tz	bb_angle	bb_tx	bb_ty	bb_tz	hip_flexion_r	hip_adduction_r	hip_rotation_r	knee_angle_r	knee_angle_r_beta	ankle_angle_r	subtalar_angle_r	mtp_angle_r	crank_angle_r	hip_flexion_l	hip_adduction_l	hip_rotation_l	knee_angle_l	knee_angle_l_beta	ankle_angle_l	subtalar_angle_l	mtp_angle_l	crank_angle_l	lumbar_extension	lumbar_bending	lumbar_rotation	arm_flex_r	arm_add_r	arm_rot_r	elbow_flex_r	pro_sup_r	wrist_flex_r	wrist_dev_r	arm_flex_l	arm_add_l	arm_rot_l	elbow_flex_l	pro_sup_l	wrist_flex_l	wrist_dev_l
      7.50500000	    -27.48879344	      8.46825786	      0.94650574	      0.42288755	      1.19187132	     -0.22888219	      0.00000000	      0.50000000	      0.00000000	      0.25000000	     32.09184601	    -12.27647996	    -12.02544343	     24.20720722	      0.42249547	    -11.30020117	      7.76904054	      0.00000000	      0.00000000	     82.42388868	     -1.83303259	     -1.49817230	    106.07846004	      1.85141839	    -21.57868449	     -5.20927492	      0.00000000	      0.00000000	    -61.84833061	     -8.41890740	     -6.31470977	     45.06213986	    -16.54778304	     12.58309823	     90.13893468	     56.85121400	      0.00000000	      0.00000000	     50.67519994	    -15.13029617	     19.84053644	     90.81195727	     54.78772987	      0.00000000	      0.00000000
      7.51000000	    -27.38736596	      8.37905328	      1.39518208	      0.42317622	      1.19268371	     -0.23007627	      0.00000000	      0.50000000	      0.00000000	      0.25000000	     31.81491529	    -12.74120658	    -13.05544903	     25.18178043	      0.43950498	    -11.91289021	      7.52010765	      0.00000000	      0.00000000	     82.98947361	     -1.19897234	     -1.38567070	    105.72512511	      1.84525154	    -21.39262180	     -5.59231108	      0.00000000	      0.00000000	    -62.21202752	     -8.16552429	     -6.64041732	     45.25229329	    -16.82464953	     12.56102505	     89.95752847	     56.83259636	      0.00000000	      0.00000000	     50.89719229	    -14.98362234	     19.68597178	     91.43615507	     54.86642400	      0.00000000	      0.00000000
      7.51500000	    -27.44626459	      8.20667077	      1.83894471	      0.42280583	      1.19326085	     -0.23145978	      0.00000000	      0.50000000	      0.00000000	      0.25000000	     31.87675199	    -13.05156004	    -13.61102527	     26.33819719	      0.45968826	    -12.43685376	      7.12787388	      0.00000000	      0.00000000	     83.69927290	     -0.62289449	     -1.36160139	    105.21882855	      1.83641499	    -21.66991724	     -6.67099153	      0.00000000	      0.00000000	    -62.43889324	     -7.78108745	     -7.14513879	     45.71538127	    -17.18842870	     13.29062701	     89.82582903	     56.93925313	      0.00000000	      0.00000000	     50.68162274	    -15.19575740	     19.23586585	     92.52516706	     54.98990361	      0.00000000	      0.00000000
      7.52000000	    -27.46961315	      8.03916161	      2.26082129	      0.42252694	      1.19417246	     -0.23272665	      0.00000000	      0.50000000	      0.00000000	      0.25000000	     32.07086409	    -13.35432552	    -14.00304676	     27.73024571	      0.48398409	    -13.22545618	      6.22450447	      0.00000000	      0.00000000	     84.18217694	     -0.03243466	     -1.25611656	    104.58286436	      1.82531532	    -21.44064632	     -7.17578707	      0.00000000	      0.00000000	    -62.72680927	     -7.42447917	     -7.47921884	     46.07843320	    -17.41850811	     13.55070494	     89.72688368	     56.96952728	      0.00000000	      0.00000000	     50.83380903	    -15.27049146	     19.10167190	     93.04052959	     55.05206850	      0.00000000	      0.00000000
      7.52500000	    -27.54880150	      7.86793192	      2.67308540	      0.42209269	      1.19506677	     -0.23407065	      0.00000000	      0.50000000	      0.00000000	      0.25000000	     32.54924433	    -13.66938470	    -14.19989114	     29.45595875	      0.51410346	    -14.12201215	      5.14280246	      0.00000000	      0.00000000	     84.60005425	      0.52655818	     -1.22368807	    103.83877119	      1.81232845	    -21.15474000	     -7.93927349	      0.00000000	      0.00000000	    -63.00712972	     -6.93988344	     -8.41588473	     47.32934811	    -17.49232097	     15.19553799	     88.91335870	     57.14824769	      0.00000000	      0.00000000	     50.28062196	    -16.15434734	     18.27662713	     94.70235120	     55.20058236	      0.00000000	      0.00000000
      7.53000000	    -27.61002911	      7.75579216	      3.27055128	      0.42141155	      1.19644483	     -0.23540497	      0.00000000	      0.50000000	      0.00000000	      0.25000000	     33.14257089	    -14.13450880	    -14.36722178	     31.38163805	      0.54771291	    -15.29478364	      3.77963280	      0.00000000	      0.00000000	     84.81719579	      1.27093282	     -1.21805556	    102.84958160	      1.79506383	    -20.75326299	     -8.46546090	      0.00000000	      0.00000000	    -63.40040287	     -6.44943021	     -8.79816636	     47.68029589	    -17.69893727	     15.23582936	     88.97758760	     57.17419516	      0.00000000	      0.00000000	     50.65321345	    -16.21927107	     18.26373629	     95.05539618	     55.24521056	      0.00000000	      0.00000000
      7.53500000	    -27.76366425	      7.56603145	      3.71725187	      0.42063998	      1.19753549	     -0.23676396	      0.00000000	      0.50000000	      0.00000000	      0.25000000	     34.04984735	    -14.44194254	    -14.21157797	     33.53612687	      0.58531583	    -16.76186865	      2.17007484	      0.00000000	      0.00000000	     85.03726262	      1.79305742	     -1.22567052	    101.83641865	      1.77738080	    -20.23324672	     -9.18883814	      0.00000000	      0.00000000	    -63.64056884	     -6.00755093	     -9.15149649	     48.08892362	    -18.00259853	     15.62287172	     89.18347788	     57.27155888	      0.00000000	      0.00000000	     50.83995621	    -16.60259278	     18.22818600	     95.70035588	     55.33231629	      0.00000000	      0.00000000
